<svg width="124" height="128" viewBox="0 0 124 128" fill="none" xmlns="http://www.w3.org/2000/svg">
<g filter="url(#filter0_d_1758_4259)">
<rect width="120" height="120" rx="20" fill="#005039"/>
<path d="M60.0002 90.0002C55.9505 90.0002 52.0216 89.2067 48.3224 87.6422C44.7499 86.1311 41.5418 83.9679 38.7868 81.2134C36.0318 78.4584 33.8691 75.2503 32.358 71.6778C30.7934 67.9786 30 64.0497 30 60C30 55.9502 30.7934 52.0214 32.358 48.3222C33.8691 44.7497 36.0322 41.5415 38.7868 38.7865C41.5418 36.0316 44.7499 33.8689 48.3224 32.3578C52.0216 30.7932 55.9505 29.9998 60.0002 29.9998C62.4635 29.9998 64.9134 30.299 67.2817 30.89C67.7835 31.0153 68.089 31.5233 67.9637 32.0255C67.8383 32.5273 67.3299 32.8328 66.8281 32.7075C64.6079 32.154 62.3105 31.873 59.9998 31.873C44.4908 31.873 31.8728 44.4905 31.8728 60C31.8728 75.5094 44.4903 88.127 59.9998 88.127C75.5092 88.127 88.1268 75.5094 88.1268 60C88.1268 57.5759 87.8181 55.1697 87.2098 52.8483C87.0786 52.3478 87.3779 51.8358 87.8783 51.7047C88.3788 51.5736 88.8908 51.8728 89.0219 52.3733C89.6708 54.8499 90 57.4158 90 60C90 64.0497 89.2066 67.9786 87.642 71.6778C86.1309 75.2503 83.9678 78.4584 81.2132 81.2134C78.4582 83.9684 75.2501 86.1311 71.6776 87.6422C67.9784 89.2067 64.0495 90.0002 59.9998 90.0002H60.0002Z" fill="white"/>
<path d="M59.9999 80.6484C57.2128 80.6484 54.5087 80.1025 51.9624 79.0254C49.5036 77.9853 47.2954 76.4965 45.3994 74.6005C43.5034 72.7045 42.0147 70.4964 40.9746 68.0375C39.8975 65.4913 39.3516 62.7871 39.3516 60C39.3516 57.2129 39.8975 54.5088 40.9746 51.9625C42.0147 49.5037 43.5034 47.2955 45.3994 45.3995C47.2954 43.5036 49.5036 42.0148 51.9624 40.9747C54.5087 39.8976 57.2128 39.3517 59.9999 39.3517C61.6894 39.3517 63.3699 39.5564 64.9952 39.96C65.4974 40.0849 65.8029 40.5929 65.6785 41.0947C65.5536 41.5969 65.0456 41.9024 64.5438 41.778C63.0667 41.4109 61.5377 41.2249 60.0004 41.2249C49.6476 41.2249 41.2257 49.6473 41.2257 59.9996C41.2257 70.3519 49.6481 78.7743 60.0004 78.7743C70.3526 78.7743 78.775 70.3519 78.775 59.9996C78.775 58.4319 78.5815 56.8744 78.2001 55.37C78.073 54.8687 78.3763 54.3589 78.8776 54.2318C79.3794 54.1047 79.8887 54.408 80.0158 54.9093C80.4355 56.564 80.6483 58.2767 80.6483 59.9991C80.6483 62.7862 80.1023 65.4904 79.0252 68.0366C77.9851 70.4955 76.4964 72.7037 74.6004 74.5996C72.7044 76.4956 70.4962 77.9844 68.0374 79.0245C65.4911 80.1016 62.787 80.6484 59.9999 80.6484Z" fill="white"/>
<path d="M60.0011 71.5796C56.9081 71.5796 54.0001 70.375 51.8133 68.1882C49.6261 66.001 48.4219 63.0934 48.4219 60.0004C48.4219 56.9073 49.6265 53.9994 51.8133 51.8126C54.0005 49.6254 56.9081 48.4211 60.0011 48.4211C60.94 48.4211 61.8743 48.534 62.7784 48.7565C63.2806 48.8801 63.5875 49.3876 63.4639 49.8898C63.3404 50.392 62.8328 50.6989 62.3306 50.5754C61.5733 50.3889 60.7897 50.2944 60.0011 50.2944C54.649 50.2944 50.2947 54.6487 50.2947 60.0008C50.2947 65.3529 54.649 69.7073 60.0011 69.7073C65.3532 69.7073 69.7076 65.3529 69.7076 60.0008C69.7076 59.1695 69.6023 58.3448 69.3954 57.5487C69.2651 57.0483 69.5653 56.5367 70.0657 56.4065C70.5661 56.2762 71.0777 56.5764 71.2079 57.0768C71.455 58.0268 71.5803 59.0107 71.5803 60.0008C71.5803 63.0939 70.3757 66.0018 68.1889 68.1886C66.0017 70.3758 63.0942 71.5796 60.0011 71.5796Z" fill="white"/>
<path d="M76.1993 52.2001C76.1511 52.2001 76.1029 52.1969 76.0543 52.1903L69.5498 51.3027C69.0734 51.2376 68.6988 50.8629 68.6336 50.3866L67.7461 43.882C67.701 43.5507 67.8134 43.217 68.0498 42.9802L78.6898 32.3403C78.9699 32.0602 79.3811 31.9576 79.7597 32.0736C80.1384 32.1895 80.4221 32.5044 80.4974 32.8929L81.5621 38.3739L87.043 39.4385C87.4315 39.5138 87.7468 39.7975 87.8624 40.1762C87.9783 40.5548 87.8757 40.966 87.5956 41.2461L76.9557 51.8861C76.7537 52.0881 76.4807 52.1996 76.1988 52.1996L76.1993 52.2001ZM70.6451 49.2917L75.8175 49.9972L84.6582 41.1565L80.4448 40.3381C80.0162 40.2547 79.6812 39.9197 79.5983 39.4915L78.7799 35.2781L69.9391 44.1189L70.6447 49.2912L70.6451 49.2917Z" fill="white"/>
<path d="M59.7158 61.292C59.442 61.292 59.1681 61.1877 58.9589 60.9785C58.541 60.5606 58.541 59.8827 58.9589 59.4648L68.916 49.5076C69.334 49.0897 70.0119 49.0897 70.4298 49.5076C70.8477 49.9256 70.8477 50.6035 70.4298 51.0214L60.4727 60.9785C60.2635 61.1877 59.9897 61.292 59.7158 61.292Z" fill="white"/>
</g>
<defs>
<filter id="filter0_d_1758_4259" x="-4" y="0" width="128" height="128" filterUnits="userSpaceOnUse" color-interpolation-filters="sRGB">
<feFlood flood-opacity="0" result="BackgroundImageFix"/>
<feColorMatrix in="SourceAlpha" type="matrix" values="0 0 0 0 0 0 0 0 0 0 0 0 0 0 0 0 0 0 127 0" result="hardAlpha"/>
<feOffset dy="4"/>
<feGaussianBlur stdDeviation="2"/>
<feComposite in2="hardAlpha" operator="out"/>
<feColorMatrix type="matrix" values="0 0 0 0 0 0 0 0 0 0 0 0 0 0 0 0 0 0 0.25 0"/>
<feBlend mode="normal" in2="BackgroundImageFix" result="effect1_dropShadow_1758_4259"/>
<feBlend mode="normal" in="SourceGraphic" in2="effect1_dropShadow_1758_4259" result="shape"/>
</filter>
</defs>
</svg>
