<svg width="26" height="26" viewBox="0 0 26 26" fill="none" xmlns="http://www.w3.org/2000/svg">
<path d="M12.7082 9.27799C13.9433 9.28085 15.0584 8.54033 15.533 7.39953C16.0076 6.25872 15.7474 4.94351 14.8725 4.07147C14.0005 3.19943 12.6853 2.93925 11.5445 3.41387C10.4037 3.88849 9.66316 5.00356 9.66602 6.23871C9.67174 7.91703 11.0298 9.27513 12.7082 9.28085V9.27799ZM12.7082 4.51178C13.4172 4.51178 14.0577 4.94066 14.3293 5.5954C14.6009 6.25301 14.4522 7.00782 13.949 7.50817C13.4487 8.01138 12.6939 8.16006 12.0363 7.88844C11.3787 7.61682 10.9526 6.97637 10.9526 6.2673C10.9412 5.79554 11.1213 5.33808 11.453 5.00356C11.7847 4.66904 12.2364 4.47747 12.7082 4.48033V4.51178Z" fill="white"/>
<path d="M12.7089 0C9.33799 0 6.10715 1.33808 3.72262 3.72262C1.33808 6.10429 0 9.33799 0 12.7089C0 16.0799 1.33808 19.3107 3.72262 21.6952C6.10429 24.0798 9.33799 25.4179 12.7089 25.4179C16.0799 25.4179 19.3107 24.0798 21.6952 21.6952C24.0798 19.3136 25.4179 16.0799 25.4179 12.7089C25.4179 9.33799 24.0798 6.10715 21.6952 3.72262C19.3107 1.33808 16.077 0 12.7089 0ZM12.7089 24.1198C9.68109 24.1198 6.77905 22.919 4.63754 20.7775C2.4989 18.636 1.2952 15.7339 1.2952 12.7061C1.2952 9.67823 2.4989 6.77619 4.63754 4.63469C6.77905 2.49604 9.68109 1.29234 12.7089 1.29234C15.7368 1.29234 18.6388 2.49604 20.7803 4.63469C22.919 6.77619 24.1227 9.67823 24.1227 12.7061C24.1169 15.7311 22.9132 18.6331 20.7746 20.7717C18.636 22.9104 15.7339 24.1141 12.7089 24.1198Z" fill="white"/>
<path d="M18.3557 9.36375C16.6288 10.3187 14.6817 10.799 12.7089 10.7619C10.7446 10.8019 8.80328 10.3187 7.08493 9.36375C6.93625 9.28083 6.75898 9.26082 6.59315 9.30942C6.42732 9.35803 6.29008 9.47239 6.21003 9.62679C6.0442 9.94129 6.16142 10.3301 6.47307 10.4988C8.19428 11.4624 10.1185 12.0085 12.0884 12.0857V16.1056C10.0613 16.7632 8.29435 18.0441 7.03918 19.7682C6.81903 20.057 6.87621 20.4687 7.16498 20.6888C7.45662 20.909 7.86834 20.8518 8.08563 20.5602C9.20928 18.9619 10.8361 17.7868 12.7089 17.2236C14.5788 17.7668 16.2142 18.919 17.355 20.4944C17.5752 20.7832 17.9869 20.8404 18.2756 20.6231C18.5644 20.4029 18.6216 19.9912 18.4043 19.7024C17.1491 17.9812 15.3793 16.7003 13.3522 16.0399V12.0542C15.3221 11.9742 17.2464 11.4309 18.9676 10.4674C19.2792 10.2958 19.3936 9.90698 19.2277 9.59248C19.142 9.44666 19.0019 9.33801 18.8389 9.29513C18.6759 9.25224 18.5015 9.27511 18.3528 9.36089L18.3557 9.36375Z" fill="white"/>
</svg>
