<svg width="30" height="30" viewBox="0 0 30 30" fill="none" xmlns="http://www.w3.org/2000/svg">
<path fill-rule="evenodd" clip-rule="evenodd" d="M14.9975 0C19.0706 0 19.5813 0.0172673 21.181 0.0902666C22.7773 0.163087 23.8675 0.416679 24.8215 0.78751C25.8077 1.17079 26.644 1.68369 27.4779 2.51758C28.3116 3.35153 28.8244 4.18805 29.2077 5.17443C29.5784 6.12854 29.832 7.21895 29.9048 8.81552C29.9778 10.4154 29.995 10.9262 29.995 15C29.995 19.0738 29.9778 19.5846 29.9048 21.1845C29.832 22.7811 29.5784 23.8715 29.2077 24.8256C28.8244 25.812 28.3116 26.6485 27.4779 27.4824C26.644 28.3163 25.8077 28.8292 24.8215 29.2125C23.8675 29.5833 22.7773 29.8369 21.181 29.9097C19.5813 29.9827 19.0706 30 14.9975 30C10.9244 30 10.4137 29.9827 8.81406 29.9097C7.21775 29.8369 6.12752 29.5833 5.17357 29.2125C4.18735 28.8292 3.35098 28.3163 2.51716 27.4824C1.68341 26.6485 1.17059 25.812 0.78738 24.8256C0.41661 23.8715 0.16306 22.7811 0.0902517 21.1845C0.0172645 19.5846 0 19.0738 0 15C0 10.9262 0.0172645 10.4154 0.0902517 8.81552C0.16306 7.21895 0.41661 6.12854 0.78738 5.17443C1.17059 4.18805 1.68341 3.35153 2.51716 2.51758C3.35098 1.68369 4.18735 1.17079 5.17357 0.78751C6.12752 0.416679 7.21775 0.163087 8.81406 0.0902666C10.4137 0.0172673 10.9244 0 14.9975 0ZM14.9975 2.7027C10.993 2.7027 10.5187 2.718 8.93723 2.79016C7.47499 2.85685 6.68088 3.10122 6.15241 3.30664C5.45236 3.57875 4.95277 3.90379 4.42798 4.42872C3.90314 4.95359 3.57816 5.45327 3.30609 6.15343C3.1007 6.68199 2.85638 7.47623 2.7897 8.93871C2.71755 10.5204 2.70225 10.9948 2.70225 15C2.70225 19.0052 2.71755 19.4796 2.7897 21.0613C2.85638 22.5238 3.1007 23.318 3.30609 23.8466C3.57816 24.5467 3.9032 25.0464 4.42798 25.5713C4.95277 26.0962 5.45236 26.4213 6.15241 26.6934C6.68088 26.8988 7.47499 27.1431 8.93723 27.2098C10.5185 27.282 10.9927 27.2973 14.9975 27.2973C19.0023 27.2973 19.4766 27.282 21.0578 27.2098C22.52 27.1431 23.3141 26.8988 23.8426 26.6934C24.5427 26.4213 25.0423 26.0962 25.567 25.5713C26.0919 25.0464 26.4169 24.5467 26.6889 23.8466C26.8943 23.318 27.1386 22.5238 27.2053 21.0613C27.2775 19.4796 27.2928 19.0052 27.2928 15C27.2928 10.9948 27.2775 10.5204 27.2053 8.93871C27.1386 7.47623 26.8943 6.68199 26.6889 6.15343C26.4169 5.45327 26.0919 4.95359 25.567 4.42872C25.0423 3.90379 24.5427 3.57875 23.8426 3.30664C23.3141 3.10122 22.52 2.85685 21.0578 2.79016C19.4764 2.718 19.002 2.7027 14.9975 2.7027ZM14.9975 7.2973C19.2509 7.2973 22.6989 10.7459 22.6989 15C22.6989 19.2541 19.2509 22.7027 14.9975 22.7027C10.7441 22.7027 7.29609 19.2541 7.29609 15C7.29609 10.7459 10.7441 7.2973 14.9975 7.2973ZM14.9975 20C17.7585 20 19.9967 17.7614 19.9967 15C19.9967 12.2386 17.7585 10 14.9975 10C12.2365 10 9.99834 12.2386 9.99834 15C9.99834 17.7614 12.2365 20 14.9975 20ZM24.8029 6.99298C24.8029 7.9871 23.9972 8.79295 23.0032 8.79295C22.0093 8.79295 21.2035 7.9871 21.2035 6.99298C21.2035 5.99886 22.0093 5.19295 23.0032 5.19295C23.9972 5.19295 24.8029 5.99886 24.8029 6.99298Z" fill="#005039"/>
</svg>
