<svg width="40" height="40" viewBox="0 0 40 40" fill="none" xmlns="http://www.w3.org/2000/svg">
<rect width="40" height="40" rx="20" fill="url(#paint0_linear_1646_311)"/>
<path d="M22.8292 13H17.1703C16.0645 13.0013 15.0045 13.4412 14.2227 14.2231C13.4409 15.005 13.0012 16.0652 13.0001 17.1709L13.0001 22.8298C13.0014 23.9355 13.4412 24.9956 14.2232 25.7774C15.0051 26.5592 16.0652 26.9989 17.171 27H22.8299C23.9356 26.9987 24.9957 26.5588 25.7775 25.7769C26.5593 24.995 26.999 23.9348 27.0001 22.8291V17.1702C26.9988 16.0645 26.5589 15.0044 25.777 14.2226C24.995 13.4408 23.9349 13.0011 22.8292 13V13ZM25.592 22.8291C25.592 23.1919 25.5205 23.5512 25.3817 23.8864C25.2429 24.2216 25.0393 24.5262 24.7828 24.7827C24.5262 25.0393 24.2217 25.2428 23.8865 25.3816C23.5513 25.5205 23.192 25.5919 22.8292 25.5919H17.1703C16.4376 25.5918 15.7351 25.3006 15.2171 24.7825C14.6991 24.2644 14.4081 23.5617 14.4081 22.8291V17.1702C14.4083 16.4376 14.6995 15.735 15.2176 15.217C15.7357 14.6991 16.4383 14.4081 17.171 14.4081H22.8299C23.5625 14.4082 24.2651 14.6994 24.783 15.2175C25.301 15.7356 25.592 16.4383 25.592 17.1709V22.8298V22.8291Z" fill="white"/>
<path d="M19.9997 16.3789C19.04 16.3804 18.1201 16.7623 17.4415 17.441C16.763 18.1197 16.3812 19.0397 16.3799 19.9993C16.3811 20.9593 16.7628 21.8796 17.4415 22.5584C18.1202 23.2372 19.0405 23.6192 20.0004 23.6205C20.9604 23.6194 21.8808 23.2375 22.5597 22.5586C23.2385 21.8798 23.6204 20.9594 23.6215 19.9993C23.62 19.0394 23.2379 18.1193 22.5589 17.4407C21.88 16.7621 20.9596 16.3805 19.9997 16.3796V16.3789ZM19.9997 22.2124C19.4129 22.2124 18.8502 21.9793 18.4353 21.5644C18.0204 21.1495 17.7873 20.5868 17.7873 20C17.7873 19.4133 18.0204 18.8506 18.4353 18.4357C18.8502 18.0208 19.4129 17.7877 19.9997 17.7877C20.5864 17.7877 21.1492 18.0208 21.5641 18.4357C21.979 18.8506 22.212 19.4133 22.212 20C22.212 20.5868 21.979 21.1495 21.5641 21.5644C21.1492 21.9793 20.5864 22.2124 19.9997 22.2124Z" fill="white"/>
<path d="M23.6279 17.2739C24.107 17.2739 24.4953 16.8855 24.4953 16.4065C24.4953 15.9274 24.107 15.5391 23.6279 15.5391C23.1489 15.5391 22.7605 15.9274 22.7605 16.4065C22.7605 16.8855 23.1489 17.2739 23.6279 17.2739Z" fill="white"/>
<defs>
<linearGradient id="paint0_linear_1646_311" x1="20" y1="0" x2="20" y2="40" gradientUnits="userSpaceOnUse">
<stop stop-color="#005039"/>
<stop offset="1" stop-color="#002017"/>
</linearGradient>
</defs>
</svg>
