<svg width="40" height="40" viewBox="0 0 40 40" fill="none" xmlns="http://www.w3.org/2000/svg">
<path d="M20 40C31.0457 40 40 31.0457 40 20C40 8.9543 31.0457 0 20 0C8.9543 0 0 8.9543 0 20C0 31.0457 8.9543 40 20 40Z" fill="white"/>
<path d="M11.9845 15.317H15.4255V26.3619H11.9845V15.317ZM13.705 9.82812C14.8045 9.82812 15.6941 10.7178 15.6941 11.8172C15.6941 12.9167 14.8045 13.8063 13.705 13.8063C12.6055 13.8063 11.7075 12.9167 11.7075 11.8172C11.7075 10.7178 12.5972 9.82812 13.705 9.82812Z" fill="#0063BD"/>
<path d="M17.5829 15.317H20.8728V16.8277H20.9148C21.3764 15.9549 22.4926 15.04 24.1628 15.04C27.6374 15.04 28.2837 17.3229 28.2837 20.3023V26.3619H24.851V20.9905C24.851 19.7064 24.8258 18.0614 23.0633 18.0614C21.3009 18.0614 21.0071 19.4546 21.0071 20.8982V26.3619H17.5745V15.317H17.5829Z" fill="#0063BD"/>
</svg>
