<svg width="34" height="34" viewBox="0 0 34 34" fill="none" xmlns="http://www.w3.org/2000/svg">
<path d="M16.599 33.1981C25.7664 33.1981 33.1981 25.7664 33.1981 16.599C33.1981 7.43164 25.7664 0 16.599 0C7.43164 0 0 7.43164 0 16.599C0 25.7664 7.43164 33.1981 16.599 33.1981Z" fill="white"/>
<path d="M9.94666 12.7122H12.8026V21.879H9.94666V12.7122ZM11.3746 8.15674C12.2871 8.15674 13.0255 8.89509 13.0255 9.80759C13.0255 10.7201 12.2871 11.4584 11.3746 11.4584C10.4621 11.4584 9.7168 10.7201 9.7168 9.80759C9.7168 8.89509 10.4552 8.15674 11.3746 8.15674Z" fill="#0063BD"/>
<path d="M14.5929 12.7123H17.3234V13.9661H17.3582C17.7414 13.2417 18.6678 12.4824 20.0539 12.4824C22.9377 12.4824 23.4741 14.3771 23.4741 16.8499V21.879H20.6251V17.421C20.6251 16.3553 20.6042 14.99 19.1414 14.99C17.6787 14.99 17.4349 16.1463 17.4349 17.3444V21.879H14.5859V12.7123H14.5929Z" fill="#0063BD"/>
</svg>
