<svg width="91" height="40" viewBox="0 0 91 40" fill="none" xmlns="http://www.w3.org/2000/svg">
<g clip-path="url(#clip0_2234_85)">
<path d="M9.27298 16.9831V3.50843C9.27298 2.11153 9.46575 1.17108 9.87952 0.549398C10.022 0.335972 10.2059 0.153528 10.4344 0H0.0757315C0.550775 0.481928 0.918417 1.26954 0.918417 2.55628V35.1752C0.918417 37.5738 0.670568 38.6196 0 39.0527C0.994148 39.0334 2.0117 39.0079 3.04785 38.9749C5.41618 38.8998 7.73219 38.8909 10.19 38.968C9.51256 38.4255 9.29845 37.7377 9.27298 37.1229V24.3855" fill="white"/>
<path d="M59.2778 18.4964C59.2868 18.4964 59.2964 18.4971 59.3054 18.4971C59.4678 18.4971 59.6228 18.4957 59.8004 18.4957H59.2778V18.4964Z" fill="white"/>
<path d="M78.1975 39.4671C78.0165 39.2757 73.0946 31.6303 69.076 24.7201C66.8681 20.9232 63.1697 18.5074 59.3494 18.4978C57.2991 18.504 56.3559 18.5411 54.791 18.5501C57.3941 19.7115 63.8946 30.5721 65.6199 34.0186C67.3845 37.5442 71.7652 39.938 75.4733 39.936C77.6589 39.9351 78.7518 39.9348 78.7518 39.9353C78.5452 39.7969 78.3614 39.6413 78.1989 39.4678L78.1975 39.4671Z" fill="white"/>
<path d="M10.4346 20.2747C10.4346 20.2747 10.4373 20.2699 10.4387 20.2671C10.4924 20.1391 10.5495 20.0028 10.6136 19.8506L10.4346 20.2754V20.2747Z" fill="white"/>
<path d="M81.1832 1.55181C81.2245 1.82238 81.2452 2.15559 81.27 2.55491V26.1391C81.513 29.7274 82.9815 36.2816 90.271 38.8537C89.7257 38.2623 89.4896 37.1732 89.4896 35.3219V1.94148L89.7416 0.540447L89.8641 0.371773C89.9461 0.258864 90.0417 0.155594 90.1526 0.0598965H80.5312C81.0448 0.503958 81.2025 1.0506 81.2025 1.5525H81.1832V1.55181Z" fill="white"/>
<path d="M74.1302 8.20723C74.1302 6.67952 73.6434 5.3136 72.6445 4.03305C71.6393 2.74561 70.2734 1.77349 68.5797 1.14079C67.1209 0.58864 66.0283 0.0826163 61.6661 0.00550783L61.6531 0.000688553H44.1729C44.7257 0.375904 44.9501 0.841308 45.0376 1.2062C45.1105 1.51601 45.1952 2.2327 45.1952 5.05267V35.5429C45.1952 37.4334 45.0789 38.0613 44.904 38.422C44.7821 38.6726 44.6114 38.8799 44.4062 39.0527H54.3994C53.8637 38.6244 53.5691 38.0138 53.5512 37.2737C53.5202 37.0258 53.483 36.2299 53.483 32.168V7.92702C53.483 3.69707 53.6228 2.1611 53.7852 1.47883C53.872 1.00585 54.4723 0.932874 54.4723 0.932874H60.6169C61.4465 0.932874 62.2672 1.15525 62.9598 1.6117C63.4892 1.96007 64.0255 2.48468 64.3883 3.26678C64.926 4.4895 65.2448 6.04682 65.2448 8.02272C65.2448 11.3666 64.5667 13.9752 63.2317 15.8038C61.3591 18.2582 57.9587 18.4978 57.9587 18.4978C67.9704 18.4971 71.7846 14.6575 73.2372 11.8052C73.5649 11.22 73.7963 10.5941 73.9436 9.92909C74.1185 9.22754 74.1302 8.78003 74.1302 8.78003L74.1081 8.7938C74.1212 8.60103 74.1302 8.4062 74.1302 8.20723Z" fill="white"/>
<path d="M27.6935 22.157V35.4127C27.6377 36.7091 27.5923 37.1793 27.5572 37.4052C27.5227 38.0434 27.1145 38.5721 26.3399 38.9818H28.4776C32.3282 38.9818 35.3547 39.0052 37.5936 39.0527C37.5544 39.0265 37.5158 38.9997 37.478 38.9735C36.4432 38.2313 35.9819 36.5749 35.9819 33.6041V4.61205C35.9819 1.71635 36.4157 0.815835 36.795 0.354561C36.8997 0.226506 37.0243 0.108778 37.1689 0H26.1465C27.0208 0.698107 27.6955 1.93735 27.6955 4.10258V13.6633" fill="white"/>
<path d="M26.3754 15.5621C25.8783 15.6324 23.0349 15.516 18.7575 15.4719C15.3757 15.4368 12.321 17.1043 11.0632 20.6079C10.4532 22.3305 10.5076 22.2816 10.0029 23.715C11.4528 22.369 15.4797 22.8434 18.8704 22.9501C22.1365 23.0527 24.6226 21.7611 25.8377 18.3628C26.5542 16.3598 26.9124 15.3583 26.9124 15.3583C26.7389 15.4582 26.562 15.536 26.3747 15.5621H26.3754Z" fill="white"/>
</g>
<defs>
<clipPath id="clip0_2234_85">
<rect width="90.327" height="40" fill="white"/>
</clipPath>
</defs>
</svg>
