<svg width="20" height="20" viewBox="0 0 20 20" fill="none" xmlns="http://www.w3.org/2000/svg">
<path fill-rule="evenodd" clip-rule="evenodd" d="M0.00400317 5.62605C-0.0616052 4.45519 0.687844 2.74433 1.61898 1.54319C1.98739 1.06627 2.39366 0.662525 2.79236 0.389998C3.25919 0.0745732 3.73611 -0.0717838 4.18023 0.0341988C4.4906 0.107377 4.76565 0.296632 4.98771 0.62215L4.99528 0.632244L5.0079 0.652431L7.48588 4.64192C7.50859 4.67977 7.61709 4.87912 7.69784 5.04062C7.76093 5.16931 7.81896 5.29801 7.8341 5.37371C8.02336 6.3755 7.38242 7.22588 6.69353 8.14692C6.51437 8.38412 6.33268 8.62889 6.16866 8.86861C6.15352 8.89132 6.13838 8.91656 6.13081 8.94179C6.44876 9.49189 6.75157 9.93853 7.08213 10.3524C7.42279 10.7813 7.80382 11.1876 8.26308 11.6494C8.72234 12.1112 9.12861 12.4897 9.56011 12.8303C9.97394 13.1584 10.4206 13.4612 10.9707 13.7817C10.9959 13.7716 11.0237 13.759 11.0439 13.7438C11.054 13.7388 11.0615 13.7312 11.0716 13.7262C11.3013 13.5672 11.5359 13.3931 11.7656 13.2189C12.6866 12.5275 13.537 11.8891 14.5388 12.0784C14.6145 12.091 14.7432 12.149 14.8719 12.2146C14.882 12.2197 14.8895 12.2247 14.8971 12.2273C15.0535 12.3055 15.2352 12.4039 15.2706 12.4266L19.26 14.9046L19.2802 14.9172C19.2954 14.9273 19.308 14.9374 19.3231 14.9475C19.6285 15.1645 19.8076 15.432 19.8783 15.7323C19.9843 16.1764 19.8404 16.6508 19.5225 17.1201C19.2525 17.5213 18.8462 17.9251 18.3693 18.2935C17.1707 19.2246 15.4598 19.9741 14.2864 19.911C12.7017 19.8227 11.0641 19.313 9.48693 18.5004C7.82906 17.645 6.23679 16.4539 4.84893 15.0661C3.46106 13.6782 2.27001 12.0859 1.41458 10.4281C0.602048 8.84842 0.0923221 7.21074 0.00400317 5.62605ZM2.38609 2.13619C1.57608 3.18087 0.917473 4.6293 0.970464 5.57306C1.05121 7.01391 1.52056 8.52038 2.27506 9.98143C3.08255 11.5459 4.21303 13.0549 5.53277 14.3747C6.85755 15.6969 8.36402 16.8274 9.92852 17.6324C11.3896 18.3843 12.8935 18.8562 14.3369 18.937C15.2832 18.99 16.7291 18.3339 17.7738 17.5213C18.175 17.211 18.5056 16.8829 18.7175 16.5725C18.8841 16.3278 18.9648 16.1108 18.9295 15.9518C18.9118 15.8786 18.8588 15.8054 18.7655 15.7373L18.7528 15.7297L18.7427 15.7247L14.7533 13.2467C14.728 13.2316 14.5892 13.1559 14.4605 13.0928C14.4505 13.0877 14.4429 13.0852 14.4353 13.0802C14.3697 13.0474 14.3823 13.0347 14.3546 13.0297C13.7691 12.9212 13.0828 13.436 12.3409 13.9936C12.1062 14.1703 11.8665 14.3494 11.6116 14.5261C11.6041 14.5311 11.594 14.5387 11.5864 14.5437C11.4602 14.6295 11.2836 14.7103 11.1069 14.7431C10.9177 14.7784 10.7209 14.7607 10.5468 14.6623C9.92852 14.3065 9.42384 13.9684 8.95197 13.5924C8.48009 13.2164 8.05112 12.8177 7.57167 12.3408C7.09475 11.8639 6.69353 11.4324 6.32007 10.9605C5.9466 10.4886 5.60594 9.98648 5.25015 9.36572C5.14921 9.18908 5.13407 8.99226 5.1694 8.80553C5.2022 8.62889 5.28295 8.45225 5.36875 8.32608C5.55043 8.06112 5.73716 7.81131 5.91885 7.56906C6.47652 6.82718 6.99129 6.14082 6.88278 5.55791C6.87269 5.5453 6.86007 5.52763 6.8525 5.51249C6.84746 5.50492 6.83989 5.49231 6.83232 5.47717V5.47464C6.76418 5.33838 6.68343 5.18193 6.66577 5.15669L4.1878 1.1672L4.18275 1.15711C4.11209 1.05365 4.03639 0.998137 3.96069 0.980473C3.80172 0.942622 3.5847 1.02589 3.33993 1.19244C3.02956 1.40693 2.70151 1.73749 2.39114 2.13871L2.38609 2.13619Z" fill="white"/>
</svg>
