<svg width="21" height="21" viewBox="0 0 21 21" fill="none" xmlns="http://www.w3.org/2000/svg">
<path d="M20.5834 19.5283L16.363 15.3436C19.5104 11.6955 19.3316 6.18753 15.8622 2.71822C14.0739 0.894151 11.6776 0 9.31706 0C6.9565 0 4.56017 0.894151 2.7361 2.71822C-0.912034 6.36636 -0.912034 12.232 2.7361 15.8801C4.52441 17.6684 6.92073 18.5983 9.31706 18.5983C11.463 18.5983 13.6447 17.8473 15.3615 16.3451L19.5819 20.5655C19.6892 20.6728 19.868 20.7443 20.0469 20.7443C20.2257 20.7443 20.4045 20.6728 20.5476 20.5297C20.8337 20.2794 20.8337 19.8144 20.5834 19.5283ZM3.73755 14.8429C2.23538 13.3765 1.44853 11.3736 1.44853 9.29917C1.44853 7.22474 2.27114 5.22184 3.73755 3.71967C5.23973 2.21749 7.20686 1.43064 9.31706 1.43064C11.4273 1.43064 13.3944 2.25326 14.8966 3.71967C16.363 5.22184 17.1856 7.18898 17.1856 9.29917C17.1856 11.4094 16.363 13.3765 14.8966 14.8787C13.3944 16.3451 11.3915 17.1677 9.31706 17.1677C7.24263 17.1677 5.23973 16.3451 3.73755 14.8429Z" fill="white"/>
</svg>
