<svg width="40" height="40" viewBox="0 0 40 40" fill="none" xmlns="http://www.w3.org/2000/svg">
<rect width="40" height="40" rx="20" fill="url(#paint0_linear_1646_305)"/>
<path d="M24.0922 15.1013H15.9077C14.3013 15.1013 13 16.3886 13 17.9768V22.0231C13 23.6113 14.302 24.8993 15.9077 24.8993H24.0922C25.6987 24.8993 27 23.6113 27 22.0231V17.9768C27 16.3886 25.698 15.1006 24.0922 15.1006V15.1013ZM22.1259 20.1963L18.2978 22.0027C18.2744 22.014 18.2486 22.0191 18.2227 22.0177C18.1969 22.0163 18.1718 22.0084 18.1498 21.9946C18.1278 21.9809 18.1096 21.9618 18.097 21.9392C18.0844 21.9166 18.0777 21.8911 18.0775 21.8652V18.1409C18.078 18.1149 18.085 18.0894 18.098 18.0668C18.111 18.0442 18.1295 18.0253 18.1517 18.0118C18.174 17.9982 18.1993 17.9906 18.2254 17.9895C18.2514 17.9884 18.2773 17.9939 18.3006 18.0055L22.1294 19.9242C22.1549 19.9369 22.1763 19.9565 22.1911 19.9809C22.206 20.0052 22.2137 20.0332 22.2133 20.0617C22.2129 20.0902 22.2045 20.118 22.1891 20.1419C22.1736 20.1659 22.1517 20.185 22.1259 20.197V20.1963Z" fill="white"/>
<defs>
<linearGradient id="paint0_linear_1646_305" x1="20" y1="0" x2="20" y2="40" gradientUnits="userSpaceOnUse">
<stop stop-color="#005039"/>
<stop offset="1" stop-color="#002017"/>
</linearGradient>
</defs>
</svg>
