<svg width="43" height="30" viewBox="0 0 43 30" fill="none" xmlns="http://www.w3.org/2000/svg">
<path fill-rule="evenodd" clip-rule="evenodd" d="M17.6454 20.7605L17.6441 8.40754L28.2306 14.6053L17.6454 20.7605ZM41.9224 6.47132C41.9224 6.47132 41.5083 3.53223 40.2392 2.23797C38.6287 0.538498 36.8237 0.530502 35.9967 0.431866C30.0709 6.43117e-07 21.1822 0 21.1822 0H21.1637C21.1637 0 12.275 6.43117e-07 6.34924 0.431866C5.52085 0.530502 3.71718 0.538498 2.10539 2.23797C0.836331 3.53223 0.423459 6.47132 0.423459 6.47132C0.423459 6.47132 0 9.92358 0 13.3745V16.6108C0 20.0631 0.423459 23.514 0.423459 23.514C0.423459 23.514 0.836331 26.4531 2.10539 27.7474C3.71718 29.4468 5.83315 29.3935 6.77535 29.5708C10.163 29.8987 21.173 30 21.173 30C21.173 30 30.0709 29.9867 35.9967 29.5548C36.8237 29.4548 38.6287 29.4468 40.2392 27.7474C41.5083 26.4531 41.9224 23.514 41.9224 23.514C41.9224 23.514 42.3459 20.0631 42.3459 16.6108V13.3745C42.3459 9.92358 41.9224 6.47132 41.9224 6.47132Z" fill="#005039"/>
</svg>
